<?xml version="1.0" encoding="UTF-8" standalone="no"?>
<!DOCTYPE svg PUBLIC "-//W3C//DTD SVG 1.1//EN"
 "http://www.w3.org/Graphics/SVG/1.1/DTD/svg11.dtd">
<!-- Generated by graphviz version 2.40.1 (20161225.0304)
 -->
<!-- Title: UmlClassDiagram Pages: 1 -->
<svg width="476pt" height="321pt"
 viewBox="0.00 0.00 475.80 321.20" xmlns="http://www.w3.org/2000/svg" xmlns:xlink="http://www.w3.org/1999/xlink">
<g id="graph0" class="graph" transform="scale(1 1) rotate(0) translate(4 317.2)">
<title>UmlClassDiagram</title>
<polygon fill="#ffffff" stroke="transparent" points="-4,4 -4,-317.2 471.801,-317.2 471.801,4 -4,4"/>
<!-- 0 -->
<g id="node1" class="node">
<title>0</title>
<polygon fill="#f2f2f2" stroke="#000000" points="0,-120.7 0,-312.7 467.801,-312.7 467.801,-120.7 0,-120.7"/>
<text text-anchor="middle" x="233.9005" y="-296.1" font-family="Times,serif" font-size="14.00" fill="#000000">&lt;&lt;Interface&gt;&gt;</text>
<text text-anchor="middle" x="233.9005" y="-279.3" font-family="Times,serif" font-size="14.00" fill="#000000">IOptionsRegistry</text>
<polyline fill="none" stroke="#000000" points="0,-271.1 467.801,-271.1 "/>
<text text-anchor="middle" x="233.9005" y="-254.5" font-family="Times,serif" font-size="14.00" fill="#000000"> </text>
<polyline fill="none" stroke="#000000" points="0,-246.3 467.801,-246.3 "/>
<text text-anchor="start" x="8" y="-229.7" font-family="Times,serif" font-size="14.00" fill="#000000">External:</text>
<text text-anchor="start" x="8" y="-212.9" font-family="Times,serif" font-size="14.00" fill="#000000"> &#160;&#160;&#160;&#160;addOption(_qToken: address)</text>
<text text-anchor="start" x="8" y="-196.1" font-family="Times,serif" font-size="14.00" fill="#000000"> &#160;&#160;&#160;&#160;makeOptionVisible(_qToken: address, index: uint256)</text>
<text text-anchor="start" x="8" y="-179.3" font-family="Times,serif" font-size="14.00" fill="#000000"> &#160;&#160;&#160;&#160;makeOptionInvisible(_qToken: address, index: uint256)</text>
<text text-anchor="start" x="8" y="-162.5" font-family="Times,serif" font-size="14.00" fill="#000000"> &#160;&#160;&#160;&#160;getOptionDetails(_underlyingAsset: address, _index: uint256): OptionDetails</text>
<text text-anchor="start" x="8" y="-145.7" font-family="Times,serif" font-size="14.00" fill="#000000"> &#160;&#160;&#160;&#160;numberOfUnderlyingAssets(): uint256</text>
<text text-anchor="start" x="8" y="-128.9" font-family="Times,serif" font-size="14.00" fill="#000000"> &#160;&#160;&#160;&#160;numberOfOptionsForUnderlying(_underlying: address): uint256</text>
</g>
<!-- 0struct0 -->
<g id="node2" class="node">
<title>0struct0</title>
<polygon fill="#f2f2f2" stroke="#000000" points="179.8321,-.5 179.8321,-83.7 287.9689,-83.7 287.9689,-.5 179.8321,-.5"/>
<text text-anchor="middle" x="233.9005" y="-67.1" font-family="Times,serif" font-size="14.00" fill="#000000">&lt;&lt;struct&gt;&gt;</text>
<text text-anchor="middle" x="233.9005" y="-50.3" font-family="Times,serif" font-size="14.00" fill="#000000">OptionDetails</text>
<polyline fill="none" stroke="#000000" points="179.8321,-42.1 287.9689,-42.1 "/>
<text text-anchor="start" x="187.8321" y="-25.5" font-family="Times,serif" font-size="14.00" fill="#000000">qToken: address</text>
<text text-anchor="start" x="187.8321" y="-8.7" font-family="Times,serif" font-size="14.00" fill="#000000">isVisible: bool</text>
</g>
<!-- 0struct0&#45;&gt;0 -->
<g id="edge1" class="edge">
<title>0struct0&#45;&gt;0</title>
<path fill="none" stroke="#000000" d="M233.9005,-83.9211C233.9005,-91.5325 233.9005,-99.7838 233.9005,-108.3212"/>
<polygon fill="#000000" stroke="#000000" points="233.9006,-108.5448 237.9005,-114.5449 233.9005,-120.5448 229.9005,-114.5448 233.9006,-108.5448"/>
</g>
</g>
</svg>
